<?xml version="1.0" encoding="UTF-8"?>
<svg fill="#FFFFFF" width="100pt" height="100pt" version="1.1" viewBox="0 0 100 100" xmlns="http://www.w3.org/2000/svg">
 <g>
  <path d="m87.5 18.16h-62.23c-0.55469 0-1 0.44531-1 1v6.5352h-6.5742c-0.55469 0-1 0.44531-1 1v5.5859h-4.1953c-0.55469 0-1 0.44531-1 1v12.957c0 0.55469 0.44531 1 1 1h4.1953v24.367c0 3.0117 2.4531 5.4648 5.4648 5.4648h12.371c0.097656 0.082032 0.19531 0.16016 0.30078 0.22266l6.8047 4.3906c0.03125 0.019531 0.066406 0.027344 0.097656 0.046875 0.03125 0.015625 0.0625 0.03125 0.097656 0.046875 0.11328 0.042968 0.22656 0.070312 0.34375 0.070312h37.133c1.9141 0 3.7148-0.74219 5.0664-2.0938 1.3477-1.3594 2.0898-3.1562 2.0898-5.0625 0-0.24219-0.011719-0.48047-0.035156-0.71484-0.003907-0.042968-0.011719-0.085937-0.019532-0.13281-0.023437-0.19531-0.050781-0.38672-0.089844-0.57812-0.007812-0.027344-0.015624-0.058594-0.019531-0.085937-0.042969-0.20703-0.097656-0.41016-0.15625-0.61328 0-0.003906-0.003906-0.007812-0.003906-0.015625-0.74219-2.4023-2.7109-4.2617-5.2109-4.8281v-5.7266h5.9492c0.16406 0 0.32812 0.007812 0.49219 0.027344 0.042968 0.007812 0.085937 0.007812 0.12891 0.007812 0.24219 0 0.47656-0.085938 0.66016-0.25 0.21484-0.1875 0.33984-0.46094 0.33984-0.75v-41.871c0-0.55469-0.44531-1-1-1zm-74 16.121h32.336v10.957h-0.36719l-6.6289-8.3633c-0.67969-0.85547-1.6914-1.3477-2.7852-1.3477-1.0898 0-2.1055 0.49219-2.7852 1.3438l-4.8047 6.0547-2.6562-3.3477c-0.67969-0.85547-1.6914-1.3477-2.7852-1.3477s-2.1055 0.49219-2.7852 1.3477l-4.4844 5.6562-2.2539 0.003906zm8.3125 6.5469c0.59375-0.75 1.8398-0.75 2.4336 0l2.9453 3.7148-0.55469 0.69922h-8.3281zm13.023-2.7109c0.29687-0.375 0.74219-0.58594 1.2188-0.58594 0.47656 0 0.92187 0.21484 1.2188 0.58984l5.6445 7.1211h-13.73zm-12.676 36.953c-1.9102 0-3.4648-1.5547-3.4648-3.4648v-24.363h28.145c0.55469 0 1-0.44531 1-1l-0.003906-12.961c0-0.55469-0.44531-1-1-1h-28.141v-4.5859h60.234v39.836h-36.754c-0.007812 0-0.011719 0.003906-0.015625 0.003906-0.058594 0-0.11719 0.011719-0.17188 0.023438-0.035156 0.007812-0.070312 0.007812-0.10156 0.019531-0.019531 0.007813-0.039063 0.019531-0.0625 0.027344-0.027344 0.011719-0.054688 0.023437-0.082031 0.039062-0.035157 0.015625-0.074219 0.027344-0.10547 0.050781l-5.5938 3.6094-1.207 0.77734c-0.19141 0.12109-0.36719 0.26562-0.52344 0.42188-0.13281 0.13281-0.25 0.28516-0.35547 0.44141-0.015625 0.023438-0.042969 0.046876-0.058593 0.070313-0.23828 0.37109-0.39844 0.79297-0.46094 1.2383-0.003906 0.027344 0.003906 0.054688 0 0.082032-0.023438 0.22266-0.027344 0.44141-0.003906 0.65625 0.003906 0.023437-0.003906 0.050781 0 0.074218zm19.016 3.9375-5.2773-3.4062c-0.074219-0.046874-0.14453-0.10937-0.21875-0.19531-0.21094-0.23828-0.30469-0.55859-0.25781-0.87891 0.042969-0.3125 0.21484-0.57812 0.48438-0.75391 0.003906-0.003907 0.003906-0.007813 0.007812-0.007813l1.3633-0.87891 3.8984-2.5156zm2-5.5508h28.977v2.4609h-28.977zm28.977-2h-28.977v-1.9219h28.977zm-28.977 6.4609h28.977v1.9219h-28.977zm30.977 1.9219v-10.305h2.3594v10.305zm8.8086-1.5078c-0.97266 0.97266-2.2695 1.5078-3.6484 1.5078h-0.79688l-0.003906-10.305h0.79688c0.26953 0 0.52734 0.039063 0.78516 0.078125 0.15234 0.023438 0.30469 0.050781 0.45312 0.085938 0.19141 0.046875 0.37891 0.10547 0.5625 0.17578 0.10938 0.039062 0.21875 0.082031 0.32422 0.12891 0.21484 0.097656 0.41797 0.21094 0.61719 0.33594 0.066407 0.042968 0.13672 0.082031 0.19922 0.125 0.21875 0.15234 0.42188 0.32031 0.61328 0.50391 0.039063 0.035156 0.082031 0.070312 0.11719 0.10938 0.19531 0.19922 0.37109 0.41406 0.53125 0.64062 0.027343 0.039062 0.058593 0.074219 0.085937 0.11328 0.15234 0.22656 0.27734 0.47266 0.39453 0.72266 0.023437 0.050781 0.054687 0.097656 0.074218 0.15234 0.10156 0.24609 0.17578 0.50391 0.23828 0.76562 0.015624 0.066406 0.042968 0.125 0.054687 0.19141 0.066406 0.32813 0.10156 0.66797 0.10156 1.0156 0.007812 1.3789-0.53125 2.6758-1.5 3.6523zm3.5391-18.336h-5.5703v-33.301c0-0.55469-0.44531-1-1-1h-53.66v-5.5352h60.23z"/>
  <path d="m51.582 63.652h21.57c0.55469 0 1-0.44531 1-1v-12.648c0-0.55469-0.44531-1-1-1h-21.57c-0.55469 0-1 0.44531-1 1v12.648c0 0.55469 0.44531 1 1 1zm1-12.648h19.57v10.648h-19.57z"/>
  <path d="m51.582 34.285h21.57c0.55469 0 1-0.44531 1-1 0-0.55469-0.44531-1-1-1h-21.57c-0.55469 0-1 0.44531-1 1 0 0.55469 0.44531 1 1 1z"/>
  <path d="m51.582 39.59h21.57c0.55469 0 1-0.44531 1-1 0-0.55469-0.44531-1-1-1h-21.57c-0.55469 0-1 0.44531-1 1 0 0.55469 0.44531 1 1 1z"/>
  <path d="m51.582 44.895h21.57c0.55469 0 1-0.44531 1-1 0-0.55469-0.44531-1-1-1h-21.57c-0.55469 0-1 0.44531-1 1 0 0.55469 0.44531 1 1 1z"/>
  <path d="m25.27 53.047h21.57c0.55469 0 1-0.44531 1-1s-0.44531-1-1-1h-21.57c-0.55469 0-1 0.44531-1 1 0 0.55078 0.44531 1 1 1z"/>
  <path d="m25.27 58.352h21.57c0.55469 0 1-0.44531 1-1 0-0.55469-0.44531-1-1-1h-21.57c-0.55469 0-1 0.44531-1 1 0 0.55078 0.44531 1 1 1z"/>
  <path d="m47.84 62.652c0-0.55469-0.44531-1-1-1h-21.57c-0.55469 0-1 0.44531-1 1 0 0.55469 0.44531 1 1 1h21.57c0.55078 0 1-0.44531 1-1z"/>
 </g>
</svg>
