<?xml version="1.0" encoding="UTF-8"?>
<svg fill="#FFFFFF" width="100pt" height="100pt" version="1.1" viewBox="0 0 100 100" xmlns="http://www.w3.org/2000/svg">
 <g>
  <path d="m93.75 31.25h-87.5c-0.86328 0-1.5625-0.69922-1.5625-1.5625v-12.5c0-0.86328 0.69922-1.5625 1.5625-1.5625h87.5c0.41406 0 0.8125 0.16406 1.1055 0.45703s0.45703 0.69141 0.45703 1.1055v12.5c0 0.41406-0.16406 0.8125-0.45703 1.1055s-0.69141 0.45703-1.1055 0.45703zm-85.938-3.125h84.375v-9.375h-84.375z"/>
  <path d="m82.812 20.312h6.25v6.25h-6.25z"/>
  <path d="m73.438 20.312h6.25v6.25h-6.25z"/>
  <path d="m64.062 20.312h6.25v6.25h-6.25z"/>
  <path d="m14.062 21.875h42.188v3.125h-42.188z"/>
  <path d="m93.75 84.375h-87.5c-0.86328 0-1.5625-0.69922-1.5625-1.5625v-65.625c0-0.86328 0.69922-1.5625 1.5625-1.5625h87.5c0.41406 0 0.8125 0.16406 1.1055 0.45703s0.45703 0.69141 0.45703 1.1055v65.625c0 0.41406-0.16406 0.8125-0.45703 1.1055s-0.69141 0.45703-1.1055 0.45703zm-85.938-3.125h84.375v-62.5h-84.375z"/>
  <path d="m26.562 31.25h3.125v51.562h-3.125z"/>
  <path d="m12.5 35.938h9.375v3.125h-9.375z"/>
  <path d="m12.5 48.438h9.375v3.125h-9.375z"/>
  <path d="m12.5 60.938h9.375v3.125h-9.375z"/>
  <path d="m12.5 73.438h9.375v3.125h-9.375z"/>
  <path d="m47.078 58.578-6.9062-12.406-4.7969 4.0312-2-2.4062 6.25-5.25c0.35938-0.29297 0.82812-0.41406 1.2812-0.32812 0.45312 0.082031 0.85156 0.36328 1.0781 0.76562l7.8125 14.062z"/>
  <path d="m46.297 53.406-1.9531-2.4375 4.6875-3.75c0.39844-0.32031 0.92969-0.42578 1.4219-0.28125l7.8125 2.3438-0.90625 3-7.0312-2.1094z"/>
  <path d="m48.438 46.875c-1.8945 0-3.6055-1.1406-4.332-2.8945-0.72266-1.75-0.32422-3.7656 1.0156-5.1094 1.3438-1.3398 3.3594-1.7383 5.1094-1.0156 1.7539 0.72656 2.8945 2.4375 2.8945 4.332 0 2.5898-2.0977 4.6875-4.6875 4.6875zm0-6.25c-0.63281 0-1.2031 0.37891-1.4453 0.96484-0.23828 0.58203-0.10547 1.2539 0.33984 1.7031 0.44922 0.44531 1.1211 0.57812 1.7031 0.33984 0.58594-0.24219 0.96484-0.8125 0.96484-1.4453 0-0.41406-0.16406-0.8125-0.45703-1.1055s-0.69141-0.45703-1.1055-0.45703z"/>
  <path d="m65.625 34.375h20.312v3.125h-20.312z"/>
  <path d="m65.625 43.75h20.312v3.125h-20.312z"/>
  <path d="m65.625 51.562h20.312v3.125h-20.312z"/>
  <path d="m34.375 60.938h51.562v3.125h-51.562z"/>
  <path d="m34.375 68.75h51.562v3.125h-51.562z"/>
  <path d="m34.375 75h51.562v3.125h-51.562z"/>
 </g>
</svg>
