<?xml version="1.0" encoding="UTF-8"?>
<svg fill="rgba(255, 255, 255,0.5)" width="100pt" height="100pt" version="1.1" viewBox="0 0 100 100" xmlns="http://www.w3.org/2000/svg">
 <g>
  <path d="m75.453 62.426c6.2109 0 11.211-5 11.211-11.211 0-6.2109-5-11.211-11.062-11.211-6.2109 0-11.211 5-11.211 11.211 0.003906 6.3594 5.0039 11.211 11.062 11.211zm3.1836-19.547l-3.9375 7.1211h-8.0312c0.60547-4.3945 4.2422-7.7266 8.7891-7.7266 1.2109 0 2.2695 0.30078 3.1797 0.60547zm5.7578 8.332c0 4.5469-3.332 8.332-7.7266 8.7891v-8.4844l4.0898-7.5742c2.2734 1.8164 3.6367 4.543 3.6367 7.2695zm-17.727 1.2148h7.5742v7.7266c-3.9375-0.60547-7.1211-3.7891-7.5742-7.7266z"/>
  <path d="m99.695 0.45312h-99.242v73.789h17.273v25.453h9.6953v-18.184h3.7891v18.184h9.6992v-25.453h58.637v-73.789zm-88.18 71.516l5-20 1.0625-0.60547v20.453h-6.0625zm27.121 25.457h-5.1523v-18.184h-8.332v18.184h-5.1523v-49.699l-5.3047 2.8789-5 19.242-3.1836-0.75781 5.3047-20.758 8.6367-4.6953c0.30469-0.15234 0.60547-0.45312 0.91016-0.45312h2.7266l5 8.332 5-8.332h3.1836c0.45312 0 0.75781 0.15234 1.2109 0.75781l7.2734 7.1211 8.4844-5.9102 1.9688 2.7266-10.758 7.4258-6.668-6.5156 0.003906 48.637zm18.938-51.062l13.484-9.3945-1.3633-1.8164-13.484 9.3945-1.668-2.4258-8.7891 6.0625-5.9102-5.7578c-1.5156-1.8164-3.1836-1.5156-7.2734-1.5156l-3.4805 6.0586-3.6367-6.0586h-3.9375c-0.91016 0.15234-1.2109 0.15234-2.1211 0.75781l-9.5469 5-1.2109 4.5469v-42.578h82.727v57.273h-50.453v-11.668l4.0898 4.0898 14.09-9.8477zm39.852 25.605h-56.516v-3.7852h52.727v-61.82h-87.273v53.789l-2.7266 10.453 5.3047 1.3633h-6.2148v-69.242h94.695z"/>
  <path d="m40.152 14.242h45.305v2.2734h-45.305z"/>
  <path d="m40.152 24.242h45.305v2.2734h-45.305z"/>
  <path d="m29.395 21.062c-4.6953 0-8.6367 3.9375-8.6367 8.6367 0 4.6953 3.9375 8.6367 8.6367 8.6367 4.6953 0 8.6367-3.9375 8.6367-8.6367s-3.9414-8.6367-8.6367-8.6367zm0 15.148c-3.4844 0-6.3633-2.8789-6.3633-6.3633s2.8789-6.3633 6.3633-6.3633 6.3633 2.8789 6.3633 6.3633-2.8789 6.3633-6.3633 6.3633z"/>
 </g>
</svg>
