<?xml version="1.0" encoding="UTF-8"?>
<svg fill="#FFFFFF" width="100pt" height="100pt" version="1.1" viewBox="0 0 100 100" xmlns="http://www.w3.org/2000/svg">
 <g>
  <path d="m91.574 3.6641h-33.18c-2.625 0-4.7617 2.1367-4.7617 4.7617v10.543c-2.8711-0.91406-5.9492-1.4727-9.2656-1.6094-6.7305-0.28125-12.922 1.457-18.422 5.1641-8.9414 6.0273-13.531 14.457-13.652 25.059-0.066407 8.1133-9.2461 11.582-8.5938 14.844 0.40234 1.9844 3.0859 2.293 5.2695 3.2383 1.793 0.77734-1.9492 2.6523 1.043 5.375-0.36719 0.30859-0.625 0.79688-0.55859 1.5078 0.15625 1.707 1.5938 2.2461 2.5195 2.9609-0.27344 0.5-1.3828 1.3672-1.3594 3.7617 0.070313 7.8594 12.215 0.40625 13.805 11.852 0.12891 0.93359 0.19922 1.8789 0.26953 2.8359 0.035156 0.46094 0.070312 0.92578 0.10938 1.3945 0.050781 0.5625 0.51953 0.99219 1.082 0.99219h31.449c0.59375 0 1.0781-0.61719 1.0898-1.2109 0-0.10937 0-0.20312-0.003907-0.30078-0.46875-9.7266 1.3555-20.395 8.0898-27.477 4.8359-5.0781 7.5391-11.156 8.0391-18.055 0.29688-4.1055-0.22656-7.9883-1.5195-11.617l3.875-3.3242 14.676-0.007813c2.625 0 4.7617-2.1367 4.7617-4.7617v-21.168c0-2.625-2.1367-4.7578-4.7617-4.7578zm-19.207 45.473c-0.46094 6.3828-2.9648 12.008-7.4414 16.715-6.9688 7.3203-9.0898 18.129-8.7188 28.312h-29.328c-0.011718-0.125-0.019531-0.25-0.027344-0.375-0.28906-3.9258-0.69531-7.5938-4.2031-10.133-5.0859-3.6836-9.832-0.63672-9.8633-4.4102-0.027344-2.6797 3.4453-3.5469-0.26172-6.0078-0.32031-0.21484-0.62109-0.40234-0.76563-0.57422 0.88281-0.22266 1.5391-0.23437 1.6992-1.1211 0.30078-1.6484-3.2852-1.6367-2.2188-3.5938 2.082-3.8555-2.6797-4.6836-4.5703-5.4531-0.67969-0.27734-0.82422-0.49219-0.83203-0.49219 0.23047-1.3789 8.5586-6.1016 8.6367-14.402 0.10938-9.8438 4.3789-17.676 12.691-23.277 5.1094-3.4453 10.871-5.0469 17.117-4.7969 3.3711 0.14062 6.4844 0.74219 9.3594 1.7383v8.3203c0 2.625 2.1367 4.7617 4.7617 4.7617h3.8711v10.184c0 0.42578 0.24609 0.8125 0.63281 0.98828 0.14453 0.066407 0.30078 0.097657 0.45312 0.097657 0.25391 0 0.50781-0.089844 0.70703-0.26172l7.1719-6.1523c0.98828 3.1211 1.3828 6.4375 1.1289 9.9336zm21.793-19.547c0 1.4258-1.1602 2.5859-2.5859 2.5859h-15.082c-0.25781 0-0.51172 0.09375-0.70703 0.26172l-11.34 9.7305v-8.9023c0-0.60156-0.48828-1.0859-1.0859-1.0859h-4.9609c-1.4258 0-2.5859-1.1602-2.5859-2.5859l-0.003906-21.172c0-1.4258 1.1602-2.5859 2.5859-2.5859h33.18c1.4258 0 2.5859 1.1602 2.5859 2.5859z"/>
  <path d="m87.512 12.656h-25.051c-0.30078 0-0.54297 0.24219-0.54297 0.54297s0.24219 0.54297 0.54297 0.54297h25.051c0.30078 0 0.54297-0.24219 0.54297-0.54297 0-0.29688-0.24219-0.54297-0.54297-0.54297z"/>
  <path d="m87.512 18.461h-25.051c-0.30078 0-0.54297 0.24219-0.54297 0.54297 0 0.30078 0.24219 0.54297 0.54297 0.54297h25.051c0.30078 0 0.54297-0.24219 0.54297-0.54297 0-0.29688-0.24219-0.54297-0.54297-0.54297z"/>
  <path d="m87.512 24.266h-25.051c-0.30078 0-0.54297 0.24219-0.54297 0.54297 0 0.30078 0.24219 0.54297 0.54297 0.54297h25.051c0.30078 0 0.54297-0.24219 0.54297-0.54297 0-0.30078-0.24219-0.54297-0.54297-0.54297z"/>
  <path d="m41.023 34.23c-3.1836 0-5.5703 0.65234-7.9766 2.1758-0.81641 0.49219-1.3203 1.1953-1.418 1.9883-0.089844 0.72656 0.17188 1.4531 0.71875 2 0.875 0.875 2.1328 0.98047 3.1797 0.27734 1.3633-0.83594 3.2383-1.3164 5.1484-1.3164 4.8867 0 5.4492 2.2734 5.4492 3.9844 0 1.5312-1.4023 2.6406-2.9258 3.8398-2.7695 2.2344-5.0625 4.4258-5.0625 8.6406 0 1.1836 0.98047 2.4102 2.625 2.4102 1.4492 0 2.625-1.082 2.625-2.4102 0-2.1289 1.3008-3.3125 3.4375-5.0039 2.5391-2 4.6367-3.957 4.6367-7.6953 0-5.4023-4.0977-8.8906-10.438-8.8906zm4.9023 15.441c-1.9609 1.5508-3.9883 3.1562-3.9883 6.1406 0 0.51953-0.53906 0.96094-1.1758 0.96094-0.76172 0-1.1758-0.49219-1.1758-0.96094 0-3.5898 1.875-5.375 4.5469-7.5273 1.6133-1.2734 3.4414-2.7188 3.4414-4.9531 0-2.4766-1.1992-5.4336-6.8984-5.4336-2.2031 0-4.3008 0.54297-5.9297 1.5469-0.17969 0.125-0.8125 0.47656-1.3711-0.082031-0.22656-0.22656-0.33984-0.51953-0.30469-0.79688 0.042969-0.34375 0.29297-0.66016 0.74219-0.92969 2.168-1.375 4.3242-1.9609 7.2148-1.9609 4.3477 0 8.9922 1.9531 8.9922 7.4375-0.007812 3.0938-1.7773 4.7344-4.0938 6.5586z"/>
  <path d="m40.676 59.84c-1.8047 0-3.2734 1.4688-3.2734 3.2734 0 1.8281 1.4688 3.3164 3.2734 3.3164 1.8594 0 3.3164-1.457 3.3164-3.3164 0-1.8047-1.4883-3.2734-3.3164-3.2734zm0 5.1367c-1.0039 0-1.8242-0.83594-1.8242-1.8672 0-0.98828 0.83594-1.8242 1.8242-1.8242 1.0273 0 1.8672 0.81641 1.8672 1.8242 0 1.0469-0.82031 1.8672-1.8672 1.8672z"/>
 </g>
</svg>
